<?xml version="1.0" encoding="UTF-8" standalone="no"?>
<!DOCTYPE svg PUBLIC "-//W3C//DTD SVG 1.1//EN" "http://www.w3.org/Graphics/SVG/1.1/DTD/svg11.dtd">
<svg width="100%" height="100%" viewBox="0 0 445 500" version="1.1" xmlns="http://www.w3.org/2000/svg" xmlns:xlink="http://www.w3.org/1999/xlink" xml:space="preserve" xmlns:serif="http://www.serif.com/" style="fill-rule:evenodd;clip-rule:evenodd;stroke-linejoin:round;stroke-miterlimit:2;">
    <g transform="matrix(1.73611,0,0,1.73611,0,0)">
        <path d="M255.569,84.452c-0.002,-4.83 -1.035,-9.098 -3.124,-12.761c-2.052,-3.602 -5.125,-6.621 -9.247,-9.008c-34.025,-19.619 -68.083,-39.178 -102.097,-58.817c-9.17,-5.294 -18.061,-5.101 -27.163,0.269c-13.543,7.987 -81.348,46.834 -101.553,58.537c-8.321,4.817 -12.37,12.189 -12.372,21.771c-0.013,39.455 -0,78.909 -0.013,118.365c-0,4.724 0.991,8.909 2.988,12.517c2.053,3.711 5.169,6.813 9.386,9.254c20.206,11.703 88.02,50.547 101.56,58.536c9.106,5.373 17.997,5.565 27.17,0.269c34.015,-19.64 68.075,-39.198 102.105,-58.817c4.217,-2.44 7.333,-5.544 9.386,-9.252c1.994,-3.608 2.987,-7.793 2.987,-12.518c-0,0 -0,-78.889 -0.013,-118.345" style="fill:#a179dc;fill-rule:nonzero;"/>
        <path d="M128.182,143.241l-125.194,72.084c2.053,3.711 5.169,6.813 9.386,9.254c20.206,11.703 88.02,50.547 101.56,58.536c9.106,5.373 17.997,5.565 27.17,0.269c34.015,-19.64 68.075,-39.198 102.105,-58.817c4.217,-2.44 7.333,-5.544 9.386,-9.252l-124.413,-72.074" style="fill:#280068;fill-rule:nonzero;"/>
        <path d="M255.569,84.452c-0.002,-4.83 -1.035,-9.098 -3.124,-12.761l-124.263,71.55l124.413,72.074c1.994,-3.608 2.985,-7.793 2.987,-12.518c-0,0 -0,-78.889 -0.013,-118.345" style="fill:#390091;fill-rule:nonzero;"/>
        <path d="M201.892,116.294l0,13.474l13.474,-0l0,-13.474l6.737,0l-0,13.474l13.474,-0l-0,6.737l-13.474,-0l-0,13.473l13.474,0l-0,6.737l-13.474,0l-0,13.474l-6.737,-0l0,-13.474l-13.474,0l0,13.474l-6.737,-0l0,-13.474l-13.473,0l-0,-6.737l13.473,0l0,-13.473l-13.473,-0l-0,-6.737l13.473,-0l0,-13.474l6.737,0Zm13.474,20.211l-13.474,-0l0,13.473l13.474,0l0,-13.473Z" style="fill:#fff;fill-rule:nonzero;"/>
        <path d="M128.457,48.626c35.144,-0 65.827,19.086 82.262,47.456l-0.161,-0.273l-41.348,23.808c-8.147,-13.793 -23.082,-23.102 -40.214,-23.294l-0.539,-0.003c-26.126,0 -47.306,21.18 -47.306,47.305c-0,8.544 2.277,16.553 6.239,23.47c8.154,14.235 23.483,23.836 41.067,23.836c17.693,0 33.109,-9.723 41.221,-24.11l-0.197,0.345l41.287,23.918c-16.255,28.129 -46.518,47.157 -81.253,47.536l-1.058,0.006c-35.255,-0 -66.025,-19.204 -82.419,-47.724c-8.003,-13.923 -12.582,-30.064 -12.582,-47.277c0,-52.466 42.532,-94.999 95.001,-94.999Z" style="fill:#fff;fill-rule:nonzero;"/>
    </g>
</svg>
