<?xml version="1.0" encoding="UTF-8" standalone="no"?>
<!DOCTYPE svg PUBLIC "-//W3C//DTD SVG 1.1//EN" "http://www.w3.org/Graphics/SVG/1.1/DTD/svg11.dtd">
<svg width="100%" height="100%" viewBox="0 0 500 500" version="1.1" xmlns="http://www.w3.org/2000/svg" xmlns:xlink="http://www.w3.org/1999/xlink" xml:space="preserve" xmlns:serif="http://www.serif.com/" style="fill-rule:evenodd;clip-rule:evenodd;stroke-linejoin:round;stroke-miterlimit:2;">
    <g transform="matrix(4.1399,0,0,4.1399,250,496.316)">
        <path d="M0,-118.274c-33.347,0 -60.388,27.035 -60.388,60.388c0,26.68 17.303,49.316 41.297,57.301c3.018,0.559 4.126,-1.31 4.126,-2.905c-0,-1.439 -0.056,-6.197 -0.082,-11.243c-16.8,3.653 -20.345,-7.125 -20.345,-7.125c-2.747,-6.979 -6.705,-8.836 -6.705,-8.836c-5.479,-3.748 0.413,-3.671 0.413,-3.671c6.064,0.426 9.257,6.224 9.257,6.224c5.386,9.231 14.127,6.562 17.573,5.019c0.543,-3.902 2.107,-6.567 3.834,-8.075c-13.413,-1.526 -27.513,-6.705 -27.513,-29.844c0,-6.592 2.359,-11.98 6.222,-16.209c-0.627,-1.521 -2.694,-7.663 0.586,-15.981c0,0 5.071,-1.622 16.61,6.191c4.817,-1.338 9.983,-2.009 15.115,-2.033c5.132,0.024 10.302,0.695 15.128,2.033c11.526,-7.813 16.59,-6.191 16.59,-6.191c3.287,8.318 1.22,14.46 0.593,15.981c3.872,4.229 6.214,9.617 6.214,16.209c0,23.195 -14.127,28.301 -27.574,29.796c2.166,1.874 4.096,5.549 4.096,11.183c0,8.08 -0.069,14.583 -0.069,16.572c0,1.608 1.086,3.49 4.147,2.898c23.982,-7.994 41.263,-30.622 41.263,-57.294c0,-33.353 -27.037,-60.388 -60.388,-60.388" style="fill:#181717;"/>
    </g>
    <g transform="matrix(1.72532,-3.76324,-3.76324,-1.72532,94.1624,361.789)">
        <path d="M-0.787,-0.501c-0.329,-0.004 -0.608,0.387 -0.6,0.864c-0.003,0.481 0.267,0.875 0.6,0.871c0.334,0.01 0.609,-0.383 0.604,-0.867c0.004,-0.48 -0.268,-0.88 -0.604,-0.868" style="fill:#181717;fill-rule:nonzero;"/>
    </g>
    <g transform="matrix(3.04794,-2.80157,-2.80157,-3.04794,106.201,374.111)">
        <path d="M-0.704,-0.272c-0.393,-0.001 -0.724,0.472 -0.719,1.04c-0.006,0.578 0.321,1.043 0.719,1.044c0.4,-0.005 0.717,-0.466 0.723,-1.043c0.003,-0.582 -0.318,-1.045 -0.723,-1.041" style="fill:#181717;fill-rule:nonzero;"/>
    </g>
    <g transform="matrix(3.41673,-2.33767,-2.33767,-3.41673,116.479,389.031)">
        <path d="M-0.671,-0.208c-0.451,-0.004 -0.815,0.537 -0.82,1.192c-0.002,0.653 0.362,1.184 0.82,1.183c0.455,0.002 0.816,-0.528 0.828,-1.181c-0.003,-0.659 -0.367,-1.19 -0.828,-1.194" style="fill:#181717;fill-rule:nonzero;"/>
    </g>
    <g transform="matrix(2.82847,-3.02299,-3.02299,-2.82847,129.63,401.222)">
        <path d="M-0.945,-0.403c-0.493,-0.008 -0.903,0.574 -0.891,1.291c-0.006,0.718 0.398,1.297 0.891,1.305c0.497,0.005 0.906,-0.583 0.901,-1.301c0.003,-0.714 -0.397,-1.306 -0.901,-1.295" style="fill:#181717;fill-rule:nonzero;"/>
    </g>
    <g transform="matrix(1.19206,-3.96456,-3.96456,-1.19206,144.642,407.22)">
        <path d="M-1.255,-0.923c-0.496,0.004 -0.896,0.592 -0.9,1.305c0.001,0.714 0.402,1.301 0.9,1.306c0.496,0.001 0.907,-0.587 0.9,-1.309c-0.001,-0.712 -0.399,-1.3 -0.9,-1.302" style="fill:#181717;fill-rule:nonzero;"/>
    </g>
    <g transform="matrix(-0.0685636,-4.13933,-4.13933,0.0685636,161.755,409.542)">
        <path d="M-1.29,-1.31c-0.499,-0.009 -0.902,0.578 -0.899,1.296c-0.004,0.722 0.409,1.3 0.899,1.3c0.503,-0.008 0.901,-0.583 0.902,-1.304c0.002,-0.718 -0.408,-1.3 -0.902,-1.292" style="fill:#181717;fill-rule:nonzero;"/>
    </g>
    <g transform="matrix(-0.736933,-4.07378,-4.07378,0.736933,179.111,407.45)">
        <path d="M-1.285,-1.533c-0.493,0.001 -0.895,0.581 -0.899,1.306c-0.002,0.713 0.41,1.298 0.899,1.3c0.505,-0.003 0.906,-0.591 0.908,-1.303c-0.005,-0.725 -0.406,-1.302 -0.908,-1.303" style="fill:#181717;fill-rule:nonzero;"/>
    </g>
</svg>
