<?xml version="1.0" encoding="UTF-8" standalone="no"?>
<!DOCTYPE svg PUBLIC "-//W3C//DTD SVG 1.1//EN" "http://www.w3.org/Graphics/SVG/1.1/DTD/svg11.dtd">
<svg width="100%" height="100%" viewBox="0 0 1818 500" version="1.1" xmlns="http://www.w3.org/2000/svg" xmlns:xlink="http://www.w3.org/1999/xlink" xml:space="preserve" xmlns:serif="http://www.serif.com/" style="fill-rule:evenodd;clip-rule:evenodd;stroke-linejoin:round;stroke-miterlimit:2;">
    <g transform="matrix(1.59693,0,0,1.59693,0,0)">
        <path d="M100.21,48.47c-10.82,-12.77 -20.13,-25.82 -22.03,-28.47c-0.081,-0.113 -0.211,-0.18 -0.35,-0.18c-0.139,-0 -0.269,0.067 -0.35,0.18c-1.89,2.68 -11.2,15.73 -22,28.5c-92.71,118.05 14.61,197.72 14.61,197.72l0.87,0.61c0.82,12.32 2.84,30 2.84,30l8.07,0c-0,0 2,-17.64 2.83,-30l0.88,-0.69c-0,0 107.32,-79.59 14.63,-197.67m-22.37,196c-0,-0 -4.81,-4.1 -6.11,-6.16l-0,-0.22l5.82,-128.56c0.027,-0.147 0.156,-0.255 0.305,-0.255c0.149,0 0.278,0.108 0.305,0.255l5.84,128.58l-0,0.22c-1.3,2 -6.11,6.16 -6.11,6.16" style="fill:#00684a;fill-rule:nonzero;"/>
    </g>
    <g transform="matrix(1.59693,0,0,1.59693,0,0)">
        <path d="M278.26,218.17l-44.56,-108.56l-0.13,-0.31l-34.75,-0l0,7.27l5.58,-0c3.473,-0 6.33,2.857 6.33,6.33c0,0.023 0,0.047 0,0.07l-1,109.34c-0.021,3.407 -2.793,6.215 -6.2,6.28l-5.71,0.06l0,7.23l33.82,0l0,-7.22l-3.48,-0.07c-3.422,-0.086 -6.195,-2.916 -6.21,-6.34l0,-103l48.61,116.56c0.699,1.664 2.335,2.752 4.14,2.752c1.805,0 3.441,-1.088 4.14,-2.752l47.5,-114l0.66,100.43c0.017,3.461 -2.799,6.331 -6.26,6.38l-3.57,0l0,7.23l39.58,0l0,-7.23l-5.42,0c-3.432,-0.054 -6.233,-2.877 -6.26,-6.31l-0.32,-109.31c-0.001,-3.444 2.797,-6.295 6.24,-6.36l5.78,-0.05l0,-7.29l-33.77,0l-44.74,108.87Z" style="fill:#00684a;fill-rule:nonzero;"/>
    </g>
    <g transform="matrix(1.59693,0,0,1.59693,0,0)">
        <path d="M589.83,236.92c-1.151,-1.163 -1.764,-2.756 -1.69,-4.39l0,-53.53c0,-10.17 -3,-18.21 -9,-23.9c-6,-5.69 -14.11,-8.56 -24.27,-8.56c-14.34,-0 -25.6,5.8 -33.48,17.23c-0.143,0.211 -0.399,0.318 -0.65,0.27c-0.255,-0.038 -0.462,-0.229 -0.52,-0.48l-3.7,-14.31l-6.19,-0l-15.94,9.12l0,5l4.11,-0c1.672,-0.088 3.318,0.454 4.61,1.52c1.192,1.209 1.802,2.878 1.67,4.57l0,63.1c0.005,0.095 0.007,0.191 0.007,0.287c0,3.187 -2.623,5.81 -5.81,5.81c-0.092,-0 -0.185,-0.003 -0.277,-0.007l-4,-0l0,7.27l36.64,-0l0,-7.27l-4,-0c-0.096,0.005 -0.191,0.007 -0.287,0.007c-3.187,0 -5.81,-2.623 -5.81,-5.81c-0,-0.096 0.002,-0.191 0.007,-0.287l0,-41.79c0.046,-5.444 1.239,-10.818 3.5,-15.77c2.232,-5.063 5.77,-9.443 10.25,-12.69c4.661,-3.326 10.275,-5.059 16,-4.94c7,-0 12.27,2.21 15.58,6.58c3.31,4.37 5,10.11 5,16.94l0,51.64c0.005,0.095 0.007,0.191 0.007,0.287c0,3.187 -2.623,5.81 -5.81,5.81c-0.092,-0 -0.185,-0.003 -0.277,-0.007l-4,0l0,7.27l36.64,0l0,-7.27l-4,0c-1.636,0.073 -3.23,-0.544 -4.39,-1.7" style="fill:#00684a;fill-rule:nonzero;"/>
    </g>
    <g transform="matrix(1.59693,0,0,1.59693,0,0)">
        <path d="M925.56,117.49c-10.463,-5.489 -22.125,-8.303 -33.94,-8.19l-48,-0l-0,7.27l4.65,-0c3.864,0.281 6.969,3.386 7.25,7.25l-0,107.55c-0.047,1.907 -0.871,3.714 -2.28,5c-1.276,1.423 -3.089,2.25 -5,2.28l-4.65,0l-0,7.27l48,0c11.815,0.113 23.477,-2.701 33.94,-8.19c10.216,-5.428 18.706,-13.617 24.5,-23.63c6,-10.23 9.08,-22.5 9.08,-36.48c-0,-13.98 -3,-26.24 -9.08,-36.47c-5.797,-10.011 -14.286,-18.199 -24.5,-23.63m14.37,60.1c-0,12.77 -2.29,23.64 -6.82,32.31c-4.53,8.67 -10.54,15.17 -17.91,19.37c-7.423,4.202 -15.821,6.382 -24.35,6.32l-9.69,0c-1.909,-0.026 -3.723,-0.85 -5,-2.27c-1.409,-1.286 -2.233,-3.093 -2.28,-5l-0,-101.51c0.286,-3.86 3.39,-6.959 7.25,-7.24l9.69,0c8.529,-0.062 16.927,2.118 24.35,6.32c7.37,4.2 13.39,10.71 17.91,19.36c4.52,8.65 6.82,19.55 6.82,32.31" style="fill:#00684a;fill-rule:nonzero;"/>
    </g>
    <g transform="matrix(1.59693,0,0,1.59693,0,0)">
        <path d="M1072.28,184.82c-4.36,-5.06 -12.86,-9.37 -22.93,-11.67c13.84,-6.87 20.86,-16.64 20.86,-29.07c0.101,-6.445 -1.789,-12.767 -5.41,-18.1c-3.843,-5.419 -9.111,-9.67 -15.22,-12.28c-7.163,-3.054 -14.894,-4.554 -22.68,-4.4l-53.9,0l0,7.27l4.27,0c3.864,0.281 6.969,3.386 7.25,7.25l0,107.55c-0.04,1.909 -0.865,3.719 -2.28,5c-1.273,1.427 -3.088,2.255 -5,2.28l-4.65,0l0,7.27l58.5,0c8.441,0.091 16.822,-1.433 24.69,-4.49c7.057,-2.677 13.234,-7.261 17.84,-13.24c4.37,-5.81 6.59,-12.91 6.59,-21.12c0.166,-8.138 -2.685,-16.056 -8,-22.22m-67,48.5c-1.409,-1.286 -2.233,-3.093 -2.28,-5l0,-48.35l27.78,0c9.76,0 17.34,2.53 22.51,7.51c5.17,4.98 7.78,11.57 7.78,19.49c-0.001,4.814 -1.179,9.555 -3.43,13.81c-2.357,4.442 -5.917,8.133 -10.27,10.65c-4.55,2.71 -10.13,4.09 -16.6,4.09l-20.53,0c-1.909,-0.026 -3.723,-0.85 -5,-2.27m-2.17,-63.55l0,-42.89c0.286,-3.86 3.39,-6.959 7.25,-7.24l13.21,0c9.49,0 16.54,2.36 20.94,7c4.4,4.64 6.64,10.73 6.64,18.06c0,7.58 -2.07,13.72 -6.16,18.26c-4.09,4.54 -10.31,6.8 -18.52,6.8l-23.36,0.01Z" style="fill:#00684a;fill-rule:nonzero;"/>
    </g>
    <g transform="matrix(1.59693,0,0,1.59693,0,0)">
        <path d="M450.32,152.85c-16.009,-8.473 -35.221,-8.473 -51.23,0c-7.641,4.199 -13.975,10.429 -18.3,18c-8.991,16.639 -8.991,36.741 0,53.38c4.325,7.571 10.659,13.801 18.3,18c16.011,8.466 35.219,8.466 51.23,0c7.647,-4.195 13.986,-10.426 18.31,-18c8.991,-16.639 8.991,-36.741 0,-53.38c-4.329,-7.571 -10.666,-13.801 -18.31,-18m7.4,44.7c0,12.34 -3,22.27 -9,29.51c-6,7.24 -14,10.86 -24,10.86c-10,0 -18.08,-3.66 -24,-10.86c-5.92,-7.2 -9,-17.16 -9,-29.51c0,-12.35 3,-22.28 9,-29.52c6,-7.24 14,-10.85 24,-10.85c10,0 18.08,3.65 24,10.85c5.92,7.2 9,17.17 9,29.52" style="fill:#00684a;fill-rule:nonzero;"/>
    </g>
    <g transform="matrix(1.59693,0,0,1.59693,0,0)">
        <path d="M803.26,152.85c-16.013,-8.473 -35.227,-8.473 -51.24,0c-7.641,4.199 -13.975,10.429 -18.3,18c-8.991,16.639 -8.991,36.741 0,53.38c4.325,7.571 10.659,13.801 18.3,18c16.014,8.466 35.226,8.466 51.24,0c7.644,-4.195 13.979,-10.426 18.3,-18c8.991,-16.639 8.991,-36.741 0,-53.38c-4.325,-7.571 -10.659,-13.801 -18.3,-18m7.39,44.7c0,12.34 -3,22.27 -9,29.51c-6,7.24 -14,10.86 -24,10.86c-10,0 -18.08,-3.66 -24,-10.86c-5.92,-7.2 -9,-17.16 -9,-29.51c0,-12.35 3,-22.28 9,-29.52c6,-7.24 14,-10.85 24,-10.85c10,0 18.08,3.65 24,10.85c5.92,7.2 9,17.17 9,29.52" style="fill:#00684a;fill-rule:nonzero;"/>
    </g>
    <g transform="matrix(1.59693,0,0,1.59693,0,0)">
        <path d="M660.8,146.49c-7.593,-0.088 -15.096,1.659 -21.87,5.09c-6.309,3.156 -11.661,7.942 -15.5,13.86c-3.689,5.721 -5.638,12.393 -5.61,19.2c-0.085,5.944 1.394,11.808 4.29,17c2.818,4.93 6.72,9.157 11.41,12.36l-14.26,19.38c-0.994,1.354 -1.531,2.99 -1.531,4.67c0,4.328 3.562,7.89 7.89,7.89l4.091,0c-3.807,2.487 -7.017,5.786 -9.4,9.66c-2.517,4.037 -3.867,8.693 -3.9,13.45c0,8.58 3.8,15.66 11.28,21c7.48,5.34 17.83,8 30.89,8c8.771,0.064 17.487,-1.408 25.75,-4.35c7.433,-2.555 14.089,-6.972 19.33,-12.83c4.848,-5.571 7.464,-12.746 7.34,-20.13c-0,-8.18 -3,-14 -10,-19.58c-6,-4.73 -15.39,-7.24 -27.1,-7.24l-40,0c-0.095,0.004 -0.184,-0.047 -0.23,-0.13c-0.049,-0.08 -0.049,-0.18 -0,-0.26l10.38,-14c2.461,1.138 5.04,2.004 7.69,2.58c2.636,0.502 5.316,0.744 8,0.72c7.824,0.125 15.566,-1.62 22.58,-5.09c6.363,-3.151 11.778,-7.934 15.69,-13.86c3.757,-5.695 5.748,-12.377 5.72,-19.2c-0,-7.42 -3.56,-20.93 -13.38,-27.82c0.004,-0.036 0.034,-0.063 0.07,-0.063c0.007,-0 0.013,0.001 0.02,0.003l21.56,2.37l-0,-9.86l-34.41,0c-5.399,-1.875 -11.075,-2.829 -16.79,-2.82m12,62.57c-3.685,1.998 -7.809,3.049 -12,3.06c-6.568,0.044 -12.894,-2.517 -17.58,-7.12c-5,-4.71 -7.49,-11.56 -7.49,-20.37c-0,-8.81 2.52,-15.67 7.49,-20.38c4.69,-4.595 11.014,-7.153 17.58,-7.11c4.191,0.011 8.315,1.062 12,3.06c3.91,2.14 7.156,5.317 9.38,9.18c2.42,4.07 3.65,9.2 3.65,15.25c-0,6.05 -1.23,11.18 -3.65,15.24c-2.218,3.868 -5.466,7.046 -9.38,9.18m-27.16,36.83l27.11,0c7.54,0 12.32,1.46 15.54,4.73c3.218,3.363 4.943,7.888 4.78,12.54c0.182,6.988 -3.034,13.648 -8.62,17.85c-5.79,4.54 -13.61,6.84 -23.25,6.84c-8.44,0 -15.36,-1.86 -20.55,-5.54c-5.19,-3.68 -7.74,-9.06 -7.74,-16.1c-0.04,-4.308 1.23,-8.529 3.64,-12.1c2.261,-3.493 5.413,-6.32 9.13,-8.19" style="fill:#00684a;fill-rule:nonzero;"/>
    </g>
    <g transform="matrix(1.59693,0,0,1.59693,0,0)">
        <path d="M1100.64,244.68c-1.943,-1.109 -3.548,-2.727 -4.64,-4.68c-2.252,-3.996 -2.252,-8.894 0,-12.89c1.104,-1.944 2.719,-3.549 4.67,-4.64c4.178,-2.281 9.242,-2.281 13.42,0c1.952,1.094 3.57,2.698 4.68,4.64c2.238,4 2.238,8.89 0,12.89c-1.113,1.94 -2.73,3.543 -4.68,4.64c-4.182,2.265 -9.238,2.265 -13.42,0m12.28,-1.48c1.631,-0.927 2.974,-2.288 3.88,-3.93c1.877,-3.547 1.877,-7.803 0,-11.35c-0.903,-1.648 -2.246,-3.012 -3.88,-3.94c-3.468,-1.892 -7.672,-1.892 -11.14,0c-1.631,0.931 -2.974,2.295 -3.88,3.94c-1.865,3.55 -1.865,7.8 0,11.35c0.909,1.64 2.251,3 3.88,3.93c3.465,1.905 7.675,1.905 11.14,0m-11,-3.49l0,-0.88l0.18,-0.14l0.6,0c0.193,-0.007 0.377,-0.09 0.51,-0.23c0.14,-0.132 0.22,-0.317 0.22,-0.51l0,-9.28c-0.001,-0.19 -0.081,-0.371 -0.22,-0.5c-0.131,-0.144 -0.316,-0.228 -0.51,-0.23l-0.6,0l-0.18,-0.14l0,-0.88l0.18,-0.14l5.2,0c1.248,-0.058 2.48,0.293 3.51,1c0.871,0.663 1.358,1.717 1.3,2.81c0.011,0.915 -0.35,1.796 -1,2.44c-0.681,0.697 -1.582,1.139 -2.55,1.25l1.2,0.35l2.32,3.66c0.13,0.246 0.382,0.406 0.66,0.42l0.6,0l0.14,0.14l0,0.88l-0.14,0.14l-3.06,0l-0.21,-0.14l-3.23,-5.38l-0.77,0l0,3.69c-0.001,0.195 0.083,0.382 0.23,0.51c0.131,0.143 0.316,0.226 0.51,0.23l0.59,-0l0.18,0.14l0,0.88l-0.18,0.14l-5.3,-0l-0.18,-0.23Zm5,-6.54c0.695,0.048 1.38,-0.195 1.89,-0.67c0.478,-0.524 0.721,-1.222 0.67,-1.93c0.034,-0.693 -0.191,-1.373 -0.63,-1.91c-0.426,-0.482 -1.047,-0.746 -1.69,-0.72l-0.38,0c-0.393,0.024 -0.711,0.338 -0.74,0.73l0,4.5l0.88,0Z" style="fill:#00684a;fill-rule:nonzero;"/>
    </g>
</svg>
